<?xml version="1.0" encoding="UTF-8" standalone="no"?>
<svg
   width="464.37527pt"
   height="269.11725pt"
   viewBox="0 0 464.37525 269.11724"
   version="1.1"
   id="svg159"
   sodipodi:docname="9-analitico_pra_t1_t3_review.svg"
   xml:space="preserve"
   xmlns:inkscape="http://www.inkscape.org/namespaces/inkscape"
   xmlns:sodipodi="http://sodipodi.sourceforge.net/DTD/sodipodi-0.dtd"
   xmlns:xlink="http://www.w3.org/1999/xlink"
   xmlns="http://www.w3.org/2000/svg"
   xmlns:svg="http://www.w3.org/2000/svg"
   xmlns:rdf="http://www.w3.org/1999/02/22-rdf-syntax-ns#"
   xmlns:cc="http://creativecommons.org/ns#"
   xmlns:dc="http://purl.org/dc/elements/1.1/"><sodipodi:namedview
     id="namedview159"
     pagecolor="#ffffff"
     bordercolor="#666666"
     borderopacity="1.0"
     inkscape:showpageshadow="2"
     inkscape:pageopacity="0.0"
     inkscape:pagecheckerboard="0"
     inkscape:deskcolor="#d1d1d1"
     inkscape:document-units="pt"><inkscape:page
       x="-1.5195759e-05"
       y="0"
       width="464.37524"
       height="269.11725"
       id="page1"
       margin="0"
       bleed="0" /></sodipodi:namedview><metadata
     id="metadata1"><rdf:RDF><cc:Work><dc:type
           rdf:resource="http://purl.org/dc/dcmitype/StillImage" /><dc:date>2024-05-24T15:28:34.484948</dc:date><dc:format>image/svg+xml</dc:format><dc:creator><cc:Agent><dc:title>Matplotlib v3.8.1, https://matplotlib.org/</dc:title></cc:Agent></dc:creator></cc:Work></rdf:RDF></metadata><defs
     id="defs1"><style
       type="text/css"
       id="style1">*{stroke-linejoin: round; stroke-linecap: butt}</style></defs><g
     id="g161"
     inkscape:export-filename="9-analitico_pra_t1_t3_review.pdf"
     inkscape:export-xdpi="300"
     inkscape:export-ydpi="300"
     transform="translate(2.4638767e-5)"><g
       id="patch_1"
       transform="scale(0.89578559,0.9344349)"><path
         d="M 0,288 H 518.4 V 0 H 0 Z"
         style="fill:#ffffff"
         id="path1" /></g><g
       id="axes_1"
       transform="matrix(0.97669451,0,0,0.97669451,1.1778558,-25.087892)"><g
         id="patch_2"><path
           d="M 64.8,256.32 H 466.56 V 34.56 H 64.8 Z"
           style="fill:#ffffff"
           id="path2" /></g><g
         id="matplotlib.axis_1"><g
           id="xtick_1"><g
             id="line2d_1"><defs
               id="defs2"><path
                 id="mc52abcdf75"
                 d="M 0,0 V 3.5"
                 style="stroke:#000000;stroke-width:0.8" /></defs><g
               id="g2"><use
                 xlink:href="#mc52abcdf75"
                 x="107.1812"
                 y="256.32001"
                 style="stroke:#000000;stroke-width:0.8"
                 id="use2" /></g></g><g
             id="text_1"><!-- 20 --><g
               transform="matrix(0.14,0,0,-0.14,100.1812,273.04125)"
               id="g4"><defs
                 id="defs3"><path
                   id="TimesNewRomanPSMT-32"
                   d="M 2934,816 2638,0 H 138 v 116 q 1103,1006 1553,1643 450,638 450,1166 0,403 -247,662 -247,260 -591,260 -312,0 -561,-183 Q 494,3481 375,3128 H 259 q 79,578 402,887 323,310 808,310 515,0 860,-331 346,-331 346,-781 0,-322 -150,-644 Q 2294,2063 1775,1497 997,647 803,472 h 1106 q 338,0 474,25 136,25 245,101 110,77 191,218 z"
                   transform="scale(0.015625)" /><path
                   id="TimesNewRomanPSMT-30"
                   d="m 231,2094 q 0,725 219,1248 219,524 581,780 282,203 582,203 487,0 875,-497 484,-615 484,-1669 0,-737 -213,-1253 Q 2547,391 2217,158 1888,-75 1581,-75 975,-75 572,641 231,1244 231,2094 Z m 613,-78 q 0,-875 215,-1428 179,-466 532,-466 168,0 349,151 182,152 276,508 143,538 143,1516 0,725 -150,1209 -112,360 -290,510 -128,103 -310,103 -212,0 -378,-191 -225,-259 -306,-816 -81,-556 -81,-1096 z"
                   transform="scale(0.015625)" /></defs><use
                 xlink:href="#TimesNewRomanPSMT-32"
                 id="use3" /><use
                 xlink:href="#TimesNewRomanPSMT-30"
                 x="50"
                 id="use4" /></g></g></g><g
           id="xtick_2"><g
             id="line2d_2"><g
               id="g5"><use
                 xlink:href="#mc52abcdf75"
                 x="176.09372"
                 y="256.32001"
                 style="stroke:#000000;stroke-width:0.8"
                 id="use5" /></g></g><g
             id="text_2"><!-- 40 --><g
               transform="matrix(0.14,0,0,-0.14,169.09372,273.04125)"
               id="g7"><defs
                 id="defs5"><path
                   id="TimesNewRomanPSMT-34"
                   d="M 2978,1563 V 1119 H 2409 V 0 H 1894 V 1119 H 100 v 400 l 1966,2806 h 343 V 1563 Z m -1084,0 V 3666 L 406,1563 Z"
                   transform="scale(0.015625)" /></defs><use
                 xlink:href="#TimesNewRomanPSMT-34"
                 id="use6" /><use
                 xlink:href="#TimesNewRomanPSMT-30"
                 x="50"
                 id="use7" /></g></g></g><g
           id="xtick_3"><g
             id="line2d_3"><g
               id="g8"><use
                 xlink:href="#mc52abcdf75"
                 x="245.00624"
                 y="256.32001"
                 style="stroke:#000000;stroke-width:0.8"
                 id="use8" /></g></g><g
             id="text_3"><!-- 60 --><g
               transform="matrix(0.14,0,0,-0.14,238.00624,273.04125)"
               id="g10"><defs
                 id="defs8"><path
                   id="TimesNewRomanPSMT-36"
                   d="m 2869,4325 v -116 q -413,-40 -674,-164 -261,-123 -516,-376 -254,-253 -421,-564 -167,-311 -280,-739 450,309 903,309 435,0 753,-350 319,-350 319,-900 0,-531 -322,-969 -387,-531 -1025,-531 -434,0 -737,288 -594,559 -594,1450 0,568 228,1080 228,513 651,910 424,397 811,534 388,138 723,138 z M 925,2138 q -56,-422 -56,-682 0,-300 111,-652 111,-351 329,-557 160,-147 388,-147 272,0 486,256 214,257 214,732 0,534 -213,924 -212,391 -603,391 -118,0 -254,-50 -136,-50 -402,-215 z"
                   transform="scale(0.015625)" /></defs><use
                 xlink:href="#TimesNewRomanPSMT-36"
                 id="use9" /><use
                 xlink:href="#TimesNewRomanPSMT-30"
                 x="50"
                 id="use10" /></g></g></g><g
           id="xtick_4"><g
             id="line2d_4"><g
               id="g11"><use
                 xlink:href="#mc52abcdf75"
                 x="313.91876"
                 y="256.32001"
                 style="stroke:#000000;stroke-width:0.8"
                 id="use11" /></g></g><g
             id="text_4"><!-- 80 --><g
               transform="matrix(0.14,0,0,-0.14,306.91876,273.04125)"
               id="g13"><defs
                 id="defs11"><path
                   id="TimesNewRomanPSMT-38"
                   d="m 1228,2134 q -503,413 -649,663 -145,250 -145,519 0,412 319,710 319,299 847,299 513,0 825,-278 313,-278 313,-634 0,-238 -169,-485 -169,-247 -703,-581 550,-425 728,-669 237,-319 237,-672 0,-447 -341,-764 -340,-317 -893,-317 -603,0 -941,378 -268,303 -268,663 0,281 189,557 189,277 651,611 z m 491,335 q 375,337 475,532 100,196 100,443 0,328 -185,514 -184,186 -503,186 -318,0 -518,-185 -200,-184 -200,-431 0,-162 82,-325 83,-162 236,-309 z M 1375,2016 Q 1116,1797 991,1539 866,1281 866,981 866,578 1086,336 1306,94 1647,94 q 337,0 540,190 204,191 204,463 0,225 -119,403 -222,331 -897,866 z"
                   transform="scale(0.015625)" /></defs><use
                 xlink:href="#TimesNewRomanPSMT-38"
                 id="use12" /><use
                 xlink:href="#TimesNewRomanPSMT-30"
                 x="50"
                 id="use13" /></g></g></g><g
           id="xtick_5"><g
             id="line2d_5"><g
               id="g14"><use
                 xlink:href="#mc52abcdf75"
                 x="382.8313"
                 y="256.32001"
                 style="stroke:#000000;stroke-width:0.8"
                 id="use14" /></g></g><g
             id="text_5"><!-- 100 --><g
               transform="matrix(0.14,0,0,-0.14,372.33129,273.04125)"
               id="g17"><defs
                 id="defs14"><path
                   id="TimesNewRomanPSMT-31"
                   d="m 750,3822 1031,503 h 103 V 747 q 0,-356 30,-444 30,-87 123,-134 94,-47 382,-53 V 0 H 825 v 116 q 300,6 387,51 88,46 122,122 35,77 35,458 v 2287 q 0,463 -31,594 -22,100 -80,147 -58,47 -139,47 -116,0 -322,-97 z"
                   transform="scale(0.015625)" /></defs><use
                 xlink:href="#TimesNewRomanPSMT-31"
                 id="use15" /><use
                 xlink:href="#TimesNewRomanPSMT-30"
                 x="50"
                 id="use16" /><use
                 xlink:href="#TimesNewRomanPSMT-30"
                 x="100"
                 id="use17" /></g></g></g><g
           id="xtick_6"><g
             id="line2d_6"><g
               id="g18"><use
                 xlink:href="#mc52abcdf75"
                 x="451.7438"
                 y="256.32001"
                 style="stroke:#000000;stroke-width:0.8"
                 id="use18" /></g></g><g
             id="text_6"><!-- 120 --><g
               transform="matrix(0.14,0,0,-0.14,441.24381,273.04125)"
               id="g21"><use
                 xlink:href="#TimesNewRomanPSMT-31"
                 id="use19" /><use
                 xlink:href="#TimesNewRomanPSMT-32"
                 x="50"
                 id="use20" /><use
                 xlink:href="#TimesNewRomanPSMT-30"
                 x="100"
                 id="use21" /></g></g></g><g
           id="text_7"><!-- Number of Control qubits --><g
             transform="matrix(0.14,0,0,-0.14,193.15781,289.75719)"
             id="g45"><defs
               id="defs21"><path
                 id="TimesNewRomanPSMT-4e"
                 d="M -84,4238 H 1066 L 3656,1059 v 2444 q 0,391 -87,488 -116,131 -366,131 h -147 v 116 h 1475 v -116 h -150 q -268,0 -381,-163 -69,-100 -69,-456 V -69 H 3819 L 1025,3344 V 734 q 0,-390 84,-487 119,-131 366,-131 h 150 V 0 H 150 v 116 h 147 q 272,0 384,162 69,100 69,456 v 2947 q -184,216 -280,284 -95,69 -279,129 -91,28 -275,28 z"
                 transform="scale(0.015625)" /><path
                 id="TimesNewRomanPSMT-75"
                 d="M 2709,2863 V 1128 q 0,-497 23,-608 24,-111 75,-155 52,-43 121,-43 97,0 219,53 L 3191,266 2334,-88 H 2194 V 519 Q 1825,119 1631,15 1438,-88 1222,-88 981,-88 804,51 628,191 559,409 491,628 491,1028 v 1278 q 0,203 -44,281 -44,79 -130,121 -86,42 -311,39 v 116 H 1009 V 947 q 0,-400 139,-525 140,-125 336,-125 135,0 305,84 170,85 405,322 v 1622 q 0,244 -89,330 -89,86 -371,92 v 116 z"
                 transform="scale(0.015625)" /><path
                 id="TimesNewRomanPSMT-6d"
                 d="m 1050,2338 q 313,312 369,359 140,119 302,184 163,66 323,66 269,0 462,-157 194,-156 260,-452 322,375 543,492 222,117 457,117 228,0 404,-117 177,-117 280,-383 69,-181 69,-569 V 647 q 0,-269 40,-369 32,-69 116,-117 84,-48 275,-48 V 0 H 3538 v 113 h 59 q 184,0 287,71 72,50 104,160 12,53 12,303 v 1231 q 0,350 -84,494 -122,200 -391,200 -166,0 -333,-83 -167,-83 -404,-308 l -7,-34 7,-134 V 647 q 0,-294 32,-366 33,-72 123,-120 91,-48 310,-48 V 0 H 1806 v 113 q 238,0 327,56 89,56 123,169 16,53 16,309 v 1231 q 0,350 -103,503 -138,200 -385,200 -168,0 -334,-90 -259,-138 -400,-310 V 647 q 0,-281 39,-366 39,-84 115,-126 77,-42 312,-42 V 0 H 100 v 113 q 197,0 275,42 78,42 118,134 41,92 41,358 v 1094 q 0,472 -28,609 -22,103 -69,142 -46,39 -128,39 -87,0 -209,-47 l -47,113 863,350 h 134 z"
                 transform="scale(0.015625)" /><path
                 id="TimesNewRomanPSMT-62"
                 d="m 984,2369 q 416,578 897,578 441,0 769,-377 328,-376 328,-1029 Q 2978,778 2472,313 2038,-88 1503,-88 1253,-88 995,3 738,94 469,275 v 2966 q 0,487 -24,599 -23,113 -73,153 -50,41 -125,41 -88,0 -219,-50 l -44,110 860,350 h 140 z m 0,-200 V 456 q 160,-156 330,-236 170,-79 349,-79 284,0 529,312 246,313 246,910 0,550 -246,845 -245,295 -558,295 -165,0 -331,-84 -125,-63 -319,-250 z"
                 transform="scale(0.015625)" /><path
                 id="TimesNewRomanPSMT-65"
                 d="m 681,1784 q -3,-637 310,-1000 312,-362 734,-362 281,0 489,154 208,155 349,530 l 96,-62 Q 2594,616 2278,264 1963,-88 1488,-88 972,-88 605,314 238,716 238,1394 q 0,734 376,1145 377,411 945,411 482,0 791,-317 309,-317 309,-849 z m 0,182 h 1325 q -15,275 -65,387 -78,175 -233,275 -155,100 -324,100 -259,0 -464,-202 -204,-201 -239,-560 z"
                 transform="scale(0.015625)" /><path
                 id="TimesNewRomanPSMT-72"
                 d="m 1038,2947 v -644 q 359,644 737,644 172,0 284,-105 113,-104 113,-242 0,-122 -82,-207 -81,-84 -193,-84 -109,0 -245,108 -136,108 -202,108 -56,0 -122,-62 -140,-129 -290,-422 V 669 q 0,-238 59,-360 41,-84 144,-140 103,-56 297,-56 V 0 H 72 v 113 q 219,0 325,68 78,50 109,160 16,53 16,303 v 1109 q 0,500 -21,595 -20,96 -75,139 -54,44 -135,44 -97,0 -219,-47 l -31,113 865,350 z"
                 transform="scale(0.015625)" /><path
                 id="TimesNewRomanPSMT-20"
                 transform="scale(0.015625)"
                 d="" /><path
                 id="TimesNewRomanPSMT-6f"
                 d="m 1600,2947 q 650,0 1044,-494 334,-422 334,-969 0,-384 -185,-778 Q 2609,313 2286,112 1963,-88 1566,-88 919,-88 538,428 216,863 216,1403 q 0,394 195,783 195,389 514,575 319,186 675,186 z m -97,-203 q -165,0 -333,-99 -167,-98 -270,-345 -103,-247 -103,-634 0,-625 248,-1079 249,-453 655,-453 303,0 500,250 197,250 197,860 0,762 -328,1200 -222,300 -566,300 z"
                 transform="scale(0.015625)" /><path
                 id="TimesNewRomanPSMT-66"
                 d="M 1319,2638 V 756 q 0,-400 87,-506 116,-137 310,-137 h 259 V 0 H 266 v 113 h 128 q 125,0 228,62 103,63 142,169 39,106 39,412 V 2638 H 247 v 225 h 556 v 187 q 0,428 137,725 138,297 421,480 283,183 636,183 328,0 603,-213 181,-141 181,-316 0,-93 -81,-176 -81,-83 -175,-83 -72,0 -152,51 -79,52 -195,222 -115,171 -212,230 -97,60 -216,60 -144,0 -244,-77 -100,-77 -144,-238 -43,-160 -43,-829 v -206 h 737 v -225 z"
                 transform="scale(0.015625)" /><path
                 id="TimesNewRomanPSMT-43"
                 d="m 3853,4334 97,-1440 h -97 q -194,647 -553,931 -359,284 -862,284 -422,0 -763,-214 -341,-214 -536,-683 -195,-468 -195,-1165 0,-575 184,-997 185,-422 555,-647 370,-225 845,-225 413,0 728,176 316,177 694,702 l 97,-62 Q 3728,428 3303,165 2878,-97 2294,-97 1241,-97 663,684 231,1266 231,2053 q 0,635 284,1166 285,531 783,823 499,292 1090,292 459,0 906,-225 131,-68 187,-68 85,0 147,59 81,84 116,234 z"
                 transform="scale(0.015625)" /><path
                 id="TimesNewRomanPSMT-6e"
                 d="m 1034,2341 q 504,606 960,606 234,0 403,-117 169,-117 269,-386 68,-188 68,-575 V 647 q 0,-272 44,-369 35,-78 111,-122 77,-43 283,-43 V 0 H 1756 v 113 h 60 q 200,0 279,60 80,61 111,180 13,47 13,294 v 1172 q 0,390 -102,567 -101,177 -342,177 -372,0 -741,-407 V 647 q 0,-291 35,-359 44,-91 120,-133 77,-42 311,-42 V 0 H 84 v 113 h 63 q 219,0 295,110 77,111 77,424 v 1062 q 0,516 -24,628 -23,113 -72,153 -48,41 -129,41 -88,0 -210,-47 l -46,113 862,350 h 134 z"
                 transform="scale(0.015625)" /><path
                 id="TimesNewRomanPSMT-74"
                 d="m 1031,3803 v -940 h 669 V 2644 H 1031 V 788 q 0,-279 80,-376 80,-96 205,-96 103,0 200,64 97,64 150,189 h 122 Q 1678,263 1478,108 1278,-47 1066,-47 922,-47 784,33 647,113 581,261 516,409 516,719 V 2644 H 63 v 103 q 171,69 351,233 180,164 320,389 72,119 200,434 z"
                 transform="scale(0.015625)" /><path
                 id="TimesNewRomanPSMT-6c"
                 d="M 1184,4444 V 647 q 0,-269 39,-357 40,-87 121,-132 81,-45 303,-45 V 0 H 244 v 113 q 197,0 268,40 72,41 113,134 41,94 41,360 v 2600 q 0,484 -22,595 -22,111 -71,151 -48,41 -123,41 -81,0 -206,-50 l -53,110 853,350 z"
                 transform="scale(0.015625)" /><path
                 id="TimesNewRomanPSMT-71"
                 d="M 2734,2947 V -734 q 0,-275 37,-353 38,-79 118,-122 80,-44 311,-44 v -116 H 1756 v 116 h 60 q 175,0 265,50 63,34 100,123 38,89 38,346 V 497 Q 1934,159 1721,35 1509,-88 1281,-88 866,-88 539,290 213,669 213,1303 q 0,728 431,1186 431,458 1040,458 179,0 329,-50 150,-50 268,-150 182,87 347,200 z M 2219,694 v 1344 q 0,234 -61,368 -61,135 -218,228 -156,94 -352,94 -350,0 -600,-297 -250,-297 -250,-900 0,-578 254,-878 255,-300 614,-300 185,0 328,80 144,80 285,261 z"
                 transform="scale(0.015625)" /><path
                 id="TimesNewRomanPSMT-69"
                 d="m 928,4444 q 131,0 223,-93 93,-92 93,-223 0,-131 -93,-225 -92,-94 -223,-94 -131,0 -225,94 -94,94 -94,225 0,131 92,223 93,93 227,93 z M 1188,2947 V 647 q 0,-269 39,-358 39,-89 115,-133 77,-43 280,-43 V 0 H 231 v 113 q 210,0 281,40 72,41 114,134 43,94 43,360 v 1103 q 0,466 -28,603 -22,100 -69,139 -47,39 -128,39 -88,0 -213,-47 l -43,113 862,350 z"
                 transform="scale(0.015625)" /><path
                 id="TimesNewRomanPSMT-73"
                 d="m 2050,2947 v -975 h -103 q -119,459 -305,625 -186,166 -473,166 -219,0 -354,-116 -134,-116 -134,-256 0,-175 100,-300 97,-128 394,-272 l 456,-222 Q 2266,1288 2266,781 2266,391 1970,151 1675,-88 1309,-88 1047,-88 709,6 606,38 541,38 469,38 428,-44 H 325 V 978 H 428 Q 516,541 762,319 1009,97 1316,97 q 215,0 351,126 136,127 136,305 0,216 -152,363 -151,147 -604,372 -453,225 -594,406 -140,178 -140,450 0,353 242,590 242,238 626,238 169,0 410,-72 159,-47 212,-47 50,0 78,22 28,22 66,97 z"
                 transform="scale(0.015625)" /></defs><use
               xlink:href="#TimesNewRomanPSMT-4e"
               id="use22" /><use
               xlink:href="#TimesNewRomanPSMT-75"
               x="72.216797"
               id="use23" /><use
               xlink:href="#TimesNewRomanPSMT-6d"
               x="122.2168"
               id="use24" /><use
               xlink:href="#TimesNewRomanPSMT-62"
               x="200"
               id="use25" /><use
               xlink:href="#TimesNewRomanPSMT-65"
               x="250"
               id="use26" /><use
               xlink:href="#TimesNewRomanPSMT-72"
               x="294.38477"
               id="use27" /><use
               xlink:href="#TimesNewRomanPSMT-20"
               x="327.68555"
               id="use28" /><use
               xlink:href="#TimesNewRomanPSMT-6f"
               x="352.68555"
               id="use29" /><use
               xlink:href="#TimesNewRomanPSMT-66"
               x="402.68555"
               id="use30" /><use
               xlink:href="#TimesNewRomanPSMT-20"
               x="435.98633"
               id="use31" /><use
               xlink:href="#TimesNewRomanPSMT-43"
               x="460.98633"
               id="use32" /><use
               xlink:href="#TimesNewRomanPSMT-6f"
               x="527.68555"
               id="use33" /><use
               xlink:href="#TimesNewRomanPSMT-6e"
               x="577.68555"
               id="use34" /><use
               xlink:href="#TimesNewRomanPSMT-74"
               x="627.68555"
               id="use35" /><use
               xlink:href="#TimesNewRomanPSMT-72"
               x="655.46875"
               id="use36" /><use
               xlink:href="#TimesNewRomanPSMT-6f"
               x="688.76953"
               id="use37" /><use
               xlink:href="#TimesNewRomanPSMT-6c"
               x="738.76953"
               id="use38" /><use
               xlink:href="#TimesNewRomanPSMT-20"
               x="766.55273"
               id="use39" /><use
               xlink:href="#TimesNewRomanPSMT-71"
               x="791.55273"
               id="use40" /><use
               xlink:href="#TimesNewRomanPSMT-75"
               x="841.55273"
               id="use41" /><use
               xlink:href="#TimesNewRomanPSMT-62"
               x="891.55273"
               id="use42" /><use
               xlink:href="#TimesNewRomanPSMT-69"
               x="941.55273"
               id="use43" /><use
               xlink:href="#TimesNewRomanPSMT-74"
               x="969.33594"
               id="use44" /><use
               xlink:href="#TimesNewRomanPSMT-73"
               x="997.11914"
               id="use45" /></g></g></g><g
         id="matplotlib.axis_2"><g
           id="ytick_1"><g
             id="line2d_7"><defs
               id="defs45"><path
                 id="m55fe6fd7ee"
                 d="M 0,0 H -3.5"
                 style="stroke:#000000;stroke-width:0.8" /></defs><g
               id="g46"><use
                 xlink:href="#m55fe6fd7ee"
                 x="64.800003"
                 y="246.24001"
                 style="stroke:#000000;stroke-width:0.8"
                 id="use46" /></g></g><g
             id="text_8"><!-- 0 --><g
               transform="matrix(0.14,0,0,-0.14,50.8,251.10062)"
               id="g47"><use
                 xlink:href="#TimesNewRomanPSMT-30"
                 id="use47" /></g></g></g><g
           id="ytick_2"><g
             id="line2d_8"><g
               id="g48"><use
                 xlink:href="#m55fe6fd7ee"
                 x="64.800003"
                 y="209.73546"
                 style="stroke:#000000;stroke-width:0.8"
                 id="use48" /></g></g><g
             id="text_9"><!-- 10000 --><g
               transform="matrix(0.14,0,0,-0.14,22.8,214.59608)"
               id="g53"><use
                 xlink:href="#TimesNewRomanPSMT-31"
                 id="use49" /><use
                 xlink:href="#TimesNewRomanPSMT-30"
                 x="50"
                 id="use50" /><use
                 xlink:href="#TimesNewRomanPSMT-30"
                 x="100"
                 id="use51" /><use
                 xlink:href="#TimesNewRomanPSMT-30"
                 x="150"
                 id="use52" /><use
                 xlink:href="#TimesNewRomanPSMT-30"
                 x="200"
                 id="use53" /></g></g></g><g
           id="ytick_3"><g
             id="line2d_9"><g
               id="g54"><use
                 xlink:href="#m55fe6fd7ee"
                 x="64.800003"
                 y="173.23091"
                 style="stroke:#000000;stroke-width:0.8"
                 id="use54" /></g></g><g
             id="text_10"><!-- 20000 --><g
               transform="matrix(0.14,0,0,-0.14,22.8,178.09153)"
               id="g59"><use
                 xlink:href="#TimesNewRomanPSMT-32"
                 id="use55" /><use
                 xlink:href="#TimesNewRomanPSMT-30"
                 x="50"
                 id="use56" /><use
                 xlink:href="#TimesNewRomanPSMT-30"
                 x="100"
                 id="use57" /><use
                 xlink:href="#TimesNewRomanPSMT-30"
                 x="150"
                 id="use58" /><use
                 xlink:href="#TimesNewRomanPSMT-30"
                 x="200"
                 id="use59" /></g></g></g><g
           id="ytick_4"><g
             id="line2d_10"><g
               id="g60"><use
                 xlink:href="#m55fe6fd7ee"
                 x="64.800003"
                 y="136.72636"
                 style="stroke:#000000;stroke-width:0.8"
                 id="use60" /></g></g><g
             id="text_11"><!-- 30000 --><g
               transform="matrix(0.14,0,0,-0.14,22.8,141.58699)"
               id="g65"><defs
                 id="defs60"><path
                   id="TimesNewRomanPSMT-33"
                   d="m 325,3431 q 181,428 457,661 277,233 690,233 509,0 781,-331 206,-247 206,-528 0,-463 -581,-957 391,-153 591,-437 200,-284 200,-669 0,-550 -350,-953 Q 1863,-75 997,-75 569,-75 414,31 259,138 259,259 q 0,91 73,160 74,69 177,69 79,0 160,-25 53,-16 240,-115 188,-98 260,-117 115,-34 247,-34 318,0 554,247 236,247 236,584 0,247 -109,481 -81,175 -178,266 -135,125 -369,226 -234,102 -478,102 H 972 v 94 q 247,31 495,178 249,147 361,353 113,206 113,453 0,322 -202,520 -201,199 -501,199 -485,0 -810,-519 z"
                   transform="scale(0.015625)" /></defs><use
                 xlink:href="#TimesNewRomanPSMT-33"
                 id="use61" /><use
                 xlink:href="#TimesNewRomanPSMT-30"
                 x="50"
                 id="use62" /><use
                 xlink:href="#TimesNewRomanPSMT-30"
                 x="100"
                 id="use63" /><use
                 xlink:href="#TimesNewRomanPSMT-30"
                 x="150"
                 id="use64" /><use
                 xlink:href="#TimesNewRomanPSMT-30"
                 x="200"
                 id="use65" /></g></g></g><g
           id="ytick_5"><g
             id="line2d_11"><g
               id="g66"><use
                 xlink:href="#m55fe6fd7ee"
                 x="64.800003"
                 y="100.22182"
                 style="stroke:#000000;stroke-width:0.8"
                 id="use66" /></g></g><g
             id="text_12"><!-- 40000 --><g
               transform="matrix(0.14,0,0,-0.14,22.8,105.08245)"
               id="g71"><use
                 xlink:href="#TimesNewRomanPSMT-34"
                 id="use67" /><use
                 xlink:href="#TimesNewRomanPSMT-30"
                 x="50"
                 id="use68" /><use
                 xlink:href="#TimesNewRomanPSMT-30"
                 x="100"
                 id="use69" /><use
                 xlink:href="#TimesNewRomanPSMT-30"
                 x="150"
                 id="use70" /><use
                 xlink:href="#TimesNewRomanPSMT-30"
                 x="200"
                 id="use71" /></g></g></g><g
           id="ytick_6"><g
             id="line2d_12"><g
               id="g72"><use
                 xlink:href="#m55fe6fd7ee"
                 x="64.800003"
                 y="63.717274"
                 style="stroke:#000000;stroke-width:0.8"
                 id="use72" /></g></g><g
             id="text_13"><!-- 50000 --><g
               transform="matrix(0.14,0,0,-0.14,22.8,68.5779)"
               id="g77"><defs
                 id="defs72"><path
                   id="TimesNewRomanPSMT-35"
                   d="M 2778,4238 2534,3706 H 1259 L 981,3138 q 828,-122 1313,-616 415,-425 415,-1000 0,-334 -136,-619 Q 2438,619 2231,419 2025,219 1772,97 1413,-75 1034,-75 653,-75 479,54 306,184 306,341 q 0,87 72,154 72,68 181,68 82,0 143,-25 61,-25 207,-129 235,-162 475,-162 366,0 642,276 277,277 277,674 0,384 -247,717 -247,333 -681,514 -341,141 -928,163 l 812,1647 z"
                   transform="scale(0.015625)" /></defs><use
                 xlink:href="#TimesNewRomanPSMT-35"
                 id="use73" /><use
                 xlink:href="#TimesNewRomanPSMT-30"
                 x="50"
                 id="use74" /><use
                 xlink:href="#TimesNewRomanPSMT-30"
                 x="100"
                 id="use75" /><use
                 xlink:href="#TimesNewRomanPSMT-30"
                 x="150"
                 id="use76" /><use
                 xlink:href="#TimesNewRomanPSMT-30"
                 x="200"
                 id="use77" /></g></g></g><g
           id="text_14"><!-- Number of CNOTs --><g
             transform="matrix(0,-0.14,-0.14,0,15.805312,198.99875)"
             id="g92"><defs
               id="defs77"><path
                 id="TimesNewRomanPSMT-4f"
                 d="m 2341,4334 q 825,0 1429,-627 605,-626 605,-1563 0,-966 -610,-1604 -609,-637 -1474,-637 -875,0 -1471,622 -595,622 -595,1609 0,1010 688,1647 596,553 1428,553 z m -60,-228 q -568,0 -912,-422 -428,-525 -428,-1537 0,-1038 443,-1597 341,-425 900,-425 597,0 986,465 389,466 389,1469 0,1088 -428,1622 -343,425 -950,425 z"
                 transform="scale(0.015625)" /><path
                 id="TimesNewRomanPSMT-54"
                 d="m 3703,4238 47,-994 h -119 q -34,262 -93,375 -97,181 -258,267 -161,86 -424,86 H 2259 V 734 q 0,-390 85,-487 119,-131 365,-131 h 147 V 0 H 1059 v 116 h 150 q 269,0 382,162 68,100 68,456 V 3972 H 1150 Q 853,3972 728,3928 566,3869 450,3700 334,3531 313,3244 H 194 l 50,994 z"
                 transform="scale(0.015625)" /></defs><use
               xlink:href="#TimesNewRomanPSMT-4e"
               id="use78" /><use
               xlink:href="#TimesNewRomanPSMT-75"
               x="72.216797"
               id="use79" /><use
               xlink:href="#TimesNewRomanPSMT-6d"
               x="122.2168"
               id="use80" /><use
               xlink:href="#TimesNewRomanPSMT-62"
               x="200"
               id="use81" /><use
               xlink:href="#TimesNewRomanPSMT-65"
               x="250"
               id="use82" /><use
               xlink:href="#TimesNewRomanPSMT-72"
               x="294.38477"
               id="use83" /><use
               xlink:href="#TimesNewRomanPSMT-20"
               x="327.68555"
               id="use84" /><use
               xlink:href="#TimesNewRomanPSMT-6f"
               x="352.68555"
               id="use85" /><use
               xlink:href="#TimesNewRomanPSMT-66"
               x="402.68555"
               id="use86" /><use
               xlink:href="#TimesNewRomanPSMT-20"
               x="435.98633"
               id="use87" /><use
               xlink:href="#TimesNewRomanPSMT-43"
               x="460.98633"
               id="use88" /><use
               xlink:href="#TimesNewRomanPSMT-4e"
               x="527.68555"
               id="use89" /><use
               xlink:href="#TimesNewRomanPSMT-4f"
               x="599.90234"
               id="use90" /><use
               xlink:href="#TimesNewRomanPSMT-54"
               x="672.11914"
               id="use91" /><use
               xlink:href="#TimesNewRomanPSMT-73"
               x="726.20312"
               id="use92" /></g></g></g><g
         id="line2d_13"><path
           d="m 83.061818,239.05591 3.445626,-1.40178 3.445626,-1.40177 3.445626,-1.40178 3.445626,-1.40177 3.445628,-1.40178 3.44562,-1.40177 3.44563,-1.40178 3.44563,-1.40177 3.44562,-1.40178 3.44563,-1.40177 3.44563,-1.40177 3.44562,-1.40178 3.44563,-1.40177 3.44562,-1.40178 3.44563,-1.40177 3.44562,-1.40178 3.44563,-1.40177 3.44563,-1.40178 3.44562,-1.40177 3.44563,-1.40177 3.44563,-1.40178 3.44562,-1.40177 3.44563,-1.40178 3.44562,-1.40177 3.44563,-1.40178 3.44563,-1.40177 3.44562,-1.40178 3.44563,-1.40177 3.44562,-1.40178 3.44563,-1.40177 3.44563,-1.40178 3.44562,-1.40177 3.44563,-1.40177 3.44563,-1.40178 3.44562,-1.40177 3.44563,-1.40178 3.44562,-1.40177 3.44563,-1.40178 3.44562,-1.40177 3.44563,-1.40178 3.44563,-1.40177 3.44562,-1.40178 3.44563,-1.40177 3.44562,-1.40177 3.44563,-1.40178 3.44563,-1.40177 3.44562,-1.40178 3.44563,-1.40177 3.44563,-1.40178 3.44562,-1.40177 3.44563,-1.40178 3.44562,-1.40177 3.44563,-1.40177 3.44563,-1.40178 3.44562,-1.40177 3.44563,-1.40178 3.44562,-1.40177 3.44563,-1.40178 3.44563,-1.40177 3.44562,-1.40178 3.44563,-1.40177 3.44562,-1.40178 3.44563,-1.40177 3.44563,-1.40177 3.44562,-1.40178 3.44563,-1.40177 3.44562,-1.40178 3.44563,-1.40177 3.44563,-1.40178 3.44562,-1.40177 3.44563,-1.40178 3.44562,-1.40177 3.44563,-1.40178 3.44563,-1.40177 3.44562,-1.40177 3.44563,-1.40178 3.44563,-1.40177 3.44562,-1.40178 3.44563,-1.40177 3.44562,-1.40178 3.44563,-1.40177 3.44563,-1.40178 3.44562,-1.40177 3.44563,-1.40178 3.44562,-1.40177 3.44563,-1.40177 3.44563,-1.40178 3.44562,-1.40177 3.44563,-1.40178 3.44562,-1.40177 3.44563,-1.40178 3.44563,-1.40177 3.44562,-1.40177 3.44563,-1.40178 3.44562,-1.40177 3.44563,-1.40178 3.44563,-1.40177 3.44562,-1.40178 3.44563,-1.40177 3.44562,-1.401777 3.44563,-1.401775 3.44563,-1.401774 3.44562,-1.401775 3.44563,-1.401774 3.44563,-1.401775 3.44562,-1.401774"
           clip-path="url(#p7bb062365b)"
           style="fill:none;stroke:#008000;stroke-width:1.5;stroke-dasharray:1.5, 2.475;stroke-dashoffset:0"
           id="path92" /></g><g
         id="line2d_14"><path
           d="m 83.061818,244.30526 3.445626,-0.35045 3.445626,-0.37964 3.445626,-0.40885 3.445626,-0.43806 3.445628,-0.46726 3.44562,-0.49646 3.44563,-0.52566 3.44563,-0.55487 3.44562,-0.58407 3.44563,-0.61328 3.44563,-0.64248 3.44562,-0.67168 3.44563,-0.70089 3.44562,-0.73009 3.44563,-0.7593 3.44562,-0.7885 3.44563,-0.8177 3.44563,-0.8469 3.44562,-0.87611 3.44563,-0.90531 3.44563,-0.93452 3.44562,-0.96372 3.44563,-0.99292 3.44562,-1.02213 3.44563,-1.05133 3.44563,-1.08054 3.44562,-1.10974 3.44563,-1.13894 3.44562,-1.16814 3.44563,-1.19735 3.44563,-1.22655 3.44562,-1.25576 3.44563,-1.28496 3.44563,-1.31416 3.44562,-1.34337 3.44563,-1.37257 3.44562,-1.40178 3.44563,-1.43098 3.44562,-1.46018 3.44563,-1.48938 3.44563,-1.51859 3.44562,-1.54779 3.44563,-1.577 3.44562,-1.6062 3.44563,-1.6354 3.44563,-1.66461 3.44562,-1.69381 3.44563,-1.72302 3.44563,-1.75222 3.44562,-1.78142 3.44563,-1.81062 3.44562,-1.83983 3.44563,-1.86903 3.44563,-1.89824 3.44562,-1.92744 3.44563,-1.95664 3.44562,-1.98585 3.44563,-2.01505 3.44563,-2.04426 3.44562,-2.07345 3.44563,-2.10267 3.44562,-2.13186 3.44563,-2.16107 3.44563,-2.19027 3.44562,-2.21948 3.44563,-2.24868 3.44562,-2.27788 3.44563,-2.30709 3.44563,-2.33629 3.44562,-2.3655 3.44563,-2.39469 3.44562,-2.42391 3.44563,-2.4531 3.44563,-2.48231 3.44562,-2.51151 3.44563,-2.54072 3.44563,-2.56992 3.44562,-2.59912 3.44563,-2.62833 3.44562,-2.65753 3.44563,-2.68674 3.44563,-2.71593 3.44562,-2.74515 3.44563,-2.77434 3.44562,-2.80355 3.44563,-2.83275 3.44563,-2.86196 3.44562,-2.89116 3.44563,-2.920363 3.44562,-2.949567 3.44563,-2.978771 3.44563,-3.007974 3.44562,-3.037178 3.44563,-3.066382 3.44562,-3.095585 3.44563,-3.12479 3.44563,-3.153992 3.44562,-3.183197 3.44563,-3.212399 3.44562,-3.241604 3.44563,-3.270807 3.44563,-3.300011 3.44562,-3.329215 3.44563,-3.358418 3.44563,-3.387622 3.44562,-3.416825"
           clip-path="url(#p7bb062365b)"
           style="fill:none;stroke:#000000;stroke-width:1.5;stroke-dasharray:9.6, 2.4, 1.5, 2.4;stroke-dashoffset:0"
           id="path93" /></g><g
         id="line2d_15"><path
           d="m 83.061818,246.24 3.445626,-1.40178 3.445626,-1.40177 3.445626,-1.40177 3.445626,-1.40178 3.445628,-1.40177 3.44562,-1.40178 3.44563,-1.40177 3.44563,-1.40178 3.44562,-1.40177 3.44563,-1.40178 3.44563,-1.40177 3.44562,-1.40177 3.44563,-1.40178 3.44562,-1.40177 3.44563,-1.40178 3.44562,-1.40177 3.44563,-1.40178 3.44563,-1.40177 3.44562,-1.40178 3.44563,-1.40177 3.44563,-1.40177 3.44562,-1.40178 3.44563,-1.40177 3.44562,-1.40178 3.44563,-1.40177 3.44563,-1.40178 3.44562,-1.40177 3.44563,-1.40178 3.44562,-1.40177 3.44563,-1.40178 3.44563,-1.40177 3.44562,-1.40178 3.44563,-1.40177 3.44563,-1.40177 3.44562,-1.40178 3.44563,-1.40177 3.44562,-1.40178 3.44563,-1.40177 3.44562,-1.40178 3.44563,-1.40177 3.44563,-1.40178 3.44562,-1.40177 3.44563,-1.40178 3.44562,-1.40177 3.44563,-1.40177 3.44563,-1.40178 3.44562,-1.40177 3.44563,-1.40178 3.44563,-1.40177 3.44562,-1.40178 3.44563,-1.40177 3.44562,-1.40178 3.44563,-1.40177 3.44563,-1.40177 3.44562,-1.40178 3.44563,-1.40177 3.44562,-1.40178 3.44563,-1.40177 3.44563,-1.40178 3.44562,-1.40177 3.44563,-1.40178 3.44562,-1.40177 3.44563,-1.40178 3.44563,-1.40177 3.44562,-1.40177 3.44563,-1.40178 3.44562,-1.40177 3.44563,-1.40178 3.44563,-1.40177 3.44562,-1.40178 3.44563,-1.40177 3.44562,-1.40178 3.44563,-1.40177 3.44563,-1.40177 3.44562,-1.40178 3.44563,-1.40177 3.44563,-1.40178 3.44562,-1.40177 3.44563,-1.40178 3.44562,-1.40177 3.44563,-1.40178 3.44563,-1.40177 3.44562,-1.40178 3.44563,-1.40177 3.44562,-1.40178 3.44563,-1.40177 3.44563,-1.40177 3.44562,-1.40178 3.44563,-1.40177 3.44562,-1.40178 3.44563,-1.40177 3.44563,-1.40178 3.44562,-1.40177 3.44563,-1.40177 3.44562,-1.40178 3.44563,-1.40177 3.44563,-1.40178 3.44562,-1.40177 3.44563,-1.40178 3.44562,-1.40177 3.44563,-1.40178 3.44563,-1.40177 3.44562,-1.40178 3.44563,-1.40177 3.44563,-1.401775 3.44562,-1.401775"
           clip-path="url(#p7bb062365b)"
           style="fill:none;stroke:#0000ff;stroke-width:1.5;stroke-dasharray:5.55, 2.4;stroke-dashoffset:0"
           id="path94" /></g><g
         id="line2d_16"><path
           d="m 100.28995,242.32671 3.44562,-0.11681 3.44563,-0.11682 3.44563,-0.11681 3.44562,-0.11682 3.44563,-0.11681 3.44563,-0.11681 3.44562,-0.11682 3.44563,-0.11681 3.44562,-0.11682 3.44563,-0.11681 3.44562,-0.11682 3.44563,-0.11681 3.44563,-0.11682 3.44562,-0.11681 3.44563,-0.11681 3.44563,-0.11682 3.44562,-0.11681 3.44563,-0.11682 3.44562,-0.11681 3.44563,-0.11682 3.44563,-0.11681 3.44562,-0.11682 3.44563,-0.11681 3.44562,-0.11682 3.44563,-0.11681 3.44563,-0.11682 3.44562,-0.11681 3.44563,-0.11681 3.44563,-0.11682 3.44562,-0.11681 3.44563,-0.11682 3.44562,-0.11681 3.44563,-0.11682 3.44562,-0.11681 3.44563,-0.11682 3.44563,-0.11681 3.44562,-0.11682 3.44563,-0.11681 3.44562,-0.11681 3.44563,-0.11682 3.44563,-0.11681 3.44562,-0.11682 3.44563,-0.11681 3.44563,-0.11682 3.44562,-0.11681 3.44563,-0.11682 3.44562,-0.11681 3.44563,-0.11682 3.44563,-0.11681 3.44562,-0.11681 3.44563,-0.11682 3.44562,-0.11681 3.44563,-0.11682 3.44563,-0.11681 3.44562,-0.11682 3.44563,-0.11681 3.44562,-0.11682 3.44563,-0.11681 3.44563,-0.11682 3.44562,-0.11681 3.44563,-0.11681 3.44562,-0.11682 3.44563,-0.11681 3.44563,-0.11682 3.44562,-0.11681 3.44563,-0.11682 3.44562,-0.11681 3.44563,-0.11682 3.44563,-0.11681 3.44562,-0.11682 3.44563,-0.11681 3.44563,-0.11681 3.44562,-0.11682 3.44563,-0.11681 3.44562,-0.11682 3.44563,-0.11681 3.44563,-0.11682 3.44562,-0.11681 3.44563,-0.11682 3.44562,-0.11681 3.44563,-0.11682 3.44563,-0.11681 3.44562,-0.11681 3.44563,-0.11682 3.44562,-0.11681 3.44563,-0.11682 3.44563,-0.11681 3.44562,-0.11682 3.44563,-0.11681 3.44562,-0.11682 3.44563,-0.11681 3.44563,-0.11682 3.44562,-0.11681 3.44563,-0.11681 3.44562,-0.11682 3.44563,-0.11681 3.44563,-0.11682 3.44562,-0.11681 3.44563,-0.11682 3.44563,-0.11681 3.44562,-0.11682"
           clip-path="url(#p7bb062365b)"
           style="fill:none;stroke:#00bfbf;stroke-width:1.5;stroke-linecap:square"
           id="path95" /></g><g
         id="patch_3"><path
           d="M 64.8,256.32 V 34.56"
           style="fill:none;stroke:#000000;stroke-width:0.8;stroke-linecap:square;stroke-linejoin:miter"
           id="path96" /></g><g
         id="patch_4"><path
           d="M 466.56,256.32 V 34.56"
           style="fill:none;stroke:#000000;stroke-width:0.8;stroke-linecap:square;stroke-linejoin:miter"
           id="path97" /></g><g
         id="patch_5"><path
           d="M 64.8,256.32 H 466.56"
           style="fill:none;stroke:#000000;stroke-width:0.8;stroke-linecap:square;stroke-linejoin:miter"
           id="path98" /></g><g
         id="patch_6"><path
           d="M 64.8,34.56 H 466.56"
           style="fill:none;stroke:#000000;stroke-width:0.8;stroke-linecap:square;stroke-linejoin:miter"
           id="path99" /></g><g
         id="legend_1"><g
           id="patch_7"><path
             d="m 74.6,124.93875 h 157.15219 q 2.8,0 2.8,-2.8 V 44.36 q 0,-2.8 -2.8,-2.8 H 74.6 q -2.8,0 -2.8,2.8 v 77.77875 q 0,2.8 2.8,2.8 z"
             style="opacity:0.8;fill:#ffffff;stroke:#cccccc;stroke-linejoin:miter"
             id="path100" /></g><g
           id="line2d_17"><path
             d="m 77.4,52.06 h 14 14"
             style="fill:none;stroke:#008000;stroke-width:1.5;stroke-dasharray:1.5, 2.475;stroke-dashoffset:0"
             id="path101" /></g><g
           id="text_15"><!-- Barenco et al., 1995 --><g
             transform="matrix(0.14,0,0,-0.14,116.6,56.96)"
             id="g120"><defs
               id="defs101"><path
                 id="TimesNewRomanPSMT-42"
                 d="m 2956,2163 q 441,-94 660,-300 303,-288 303,-704 0,-315 -200,-604 Q 3519,266 3170,133 2822,0 2106,0 H 106 v 116 h 160 q 265,0 381,168 72,110 72,466 v 2738 q 0,393 -91,496 -122,138 -362,138 H 106 v 116 h 1832 q 512,0 821,-75 469,-113 716,-399 247,-286 247,-658 0,-318 -194,-570 -194,-252 -572,-373 z m -1637,168 q 115,-22 263,-33 149,-10 327,-10 457,0 686,98 230,98 352,301 122,204 122,444 0,372 -303,634 -303,263 -885,263 -312,0 -562,-69 z m 0,-2025 q 362,-84 715,-84 566,0 863,254 297,255 297,630 0,247 -135,475 -134,228 -437,359 -303,132 -750,132 -194,0 -332,-7 -137,-6 -221,-21 z"
                 transform="scale(0.015625)" /><path
                 id="TimesNewRomanPSMT-61"
                 d="M 1822,413 Q 1381,72 1269,19 1100,-59 909,-59 613,-59 420,144 228,347 228,678 q 0,210 94,363 128,212 445,399 317,188 1055,457 v 112 q 0,429 -136,588 -136,159 -395,159 -197,0 -313,-106 -119,-106 -119,-244 l 7,-181 q 0,-144 -74,-222 -73,-78 -192,-78 -116,0 -189,81 -73,82 -73,222 0,269 275,494 275,225 771,225 382,0 625,-128 185,-97 272,-303 57,-135 57,-550 V 994 q 0,-410 15,-502 16,-92 52,-123 36,-31 83,-31 50,0 87,21 66,41 253,229 V 413 q -350,-469 -669,-469 -153,0 -244,106 -90,106 -93,363 z m 0,203 V 1706 Q 1350,1519 1213,1441 966,1303 859,1153 753,1003 753,825 q 0,-225 134,-374 135,-148 310,-148 237,0 625,313 z"
                 transform="scale(0.015625)" /><path
                 id="TimesNewRomanPSMT-63"
                 d="M 2631,1088 Q 2516,522 2178,217 1841,-88 1431,-88 944,-88 581,321 219,731 219,1428 q 0,675 401,1097 402,422 964,422 422,0 694,-224 272,-223 272,-464 0,-118 -77,-192 -76,-73 -214,-73 -184,0 -278,119 -53,65 -70,249 -17,185 -127,282 -109,94 -303,94 -312,0 -503,-232 -253,-306 -253,-809 0,-513 251,-905 252,-392 680,-392 307,0 550,209 172,144 335,522 z"
                 transform="scale(0.015625)" /><path
                 id="TimesNewRomanPSMT-2e"
                 d="M 800,606 Q 947,606 1047,504 1147,403 1147,259 1147,116 1045,14 944,-88 800,-88 656,-88 554,14 453,116 453,259 q 0,147 101,247 102,100 246,100 z"
                 transform="scale(0.015625)" /><path
                 id="TimesNewRomanPSMT-2c"
                 d="m 344,-1066 v 138 q 322,106 498,330 177,223 177,473 0,59 -28,100 Q 969,3 947,3 913,3 797,-59 741,-88 678,-88 525,-88 434,3 q -90,91 -90,250 0,153 117,262 117,110 286,110 206,0 367,-180 161,-179 161,-476 0,-322 -224,-598 -223,-277 -707,-437 z"
                 transform="scale(0.015625)" /><path
                 id="TimesNewRomanPSMT-39"
                 d="M 338,-88 V 28 q 406,6 756,189 350,183 676,639 327,457 455,1003 -491,-315 -887,-315 -447,0 -766,345 -319,345 -319,917 0,557 319,991 384,528 1003,528 522,0 894,-431 456,-535 456,-1319 0,-706 -347,-1317 Q 2231,647 1613,244 1109,-88 516,-88 Z m 1937,2179 q 56,406 56,650 0,303 -103,654 -103,352 -292,539 -189,188 -430,188 -278,0 -488,-250 -209,-250 -209,-744 0,-659 279,-1031 203,-269 500,-269 143,0 340,69 197,69 347,194 z"
                 transform="scale(0.015625)" /></defs><use
               xlink:href="#TimesNewRomanPSMT-42"
               id="use101" /><use
               xlink:href="#TimesNewRomanPSMT-61"
               x="66.699219"
               id="use102" /><use
               xlink:href="#TimesNewRomanPSMT-72"
               x="111.08398"
               id="use103" /><use
               xlink:href="#TimesNewRomanPSMT-65"
               x="144.38477"
               id="use104" /><use
               xlink:href="#TimesNewRomanPSMT-6e"
               x="188.76953"
               id="use105" /><use
               xlink:href="#TimesNewRomanPSMT-63"
               x="238.76953"
               id="use106" /><use
               xlink:href="#TimesNewRomanPSMT-6f"
               x="283.1543"
               id="use107" /><use
               xlink:href="#TimesNewRomanPSMT-20"
               x="333.1543"
               id="use108" /><use
               xlink:href="#TimesNewRomanPSMT-65"
               x="358.1543"
               id="use109" /><use
               xlink:href="#TimesNewRomanPSMT-74"
               x="402.53906"
               id="use110" /><use
               xlink:href="#TimesNewRomanPSMT-20"
               x="430.32227"
               id="use111" /><use
               xlink:href="#TimesNewRomanPSMT-61"
               x="455.32227"
               id="use112" /><use
               xlink:href="#TimesNewRomanPSMT-6c"
               x="499.70703"
               id="use113" /><use
               xlink:href="#TimesNewRomanPSMT-2e"
               x="527.49023"
               id="use114" /><use
               xlink:href="#TimesNewRomanPSMT-2c"
               x="552.49023"
               id="use115" /><use
               xlink:href="#TimesNewRomanPSMT-20"
               x="577.49023"
               id="use116" /><use
               xlink:href="#TimesNewRomanPSMT-31"
               x="602.49023"
               id="use117" /><use
               xlink:href="#TimesNewRomanPSMT-39"
               x="652.49023"
               id="use118" /><use
               xlink:href="#TimesNewRomanPSMT-39"
               x="702.49023"
               id="use119" /><use
               xlink:href="#TimesNewRomanPSMT-35"
               x="752.49023"
               id="use120" /></g></g><g
           id="line2d_18"><path
             d="m 77.4,71.854688 h 14 14"
             style="fill:none;stroke:#000000;stroke-width:1.5;stroke-dasharray:9.6, 2.4, 1.5, 2.4;stroke-dashoffset:0"
             id="path120" /></g><g
           id="text_16"><!-- da Silva et al., 2022 --><g
             transform="matrix(0.14,0,0,-0.14,116.6,76.754688)"
             id="g141"><defs
               id="defs120"><path
                 id="TimesNewRomanPSMT-64"
                 d="M 2222,322 Q 2013,103 1813,7 1613,-88 1381,-88 913,-88 563,304 213,697 213,1313 q 0,615 387,1126 388,511 997,511 378,0 625,-241 v 529 q 0,490 -24,602 -23,113 -73,153 -50,41 -125,41 -81,0 -216,-50 l -40,110 853,350 h 141 V 1134 q 0,-503 23,-614 23,-111 75,-155 52,-43 120,-43 85,0 225,53 l 35,-109 -850,-354 h -144 z m 0,219 v 1475 q -19,212 -113,387 -93,175 -248,264 -155,89 -302,89 -275,0 -490,-247 -285,-325 -285,-950 0,-631 275,-967 275,-336 613,-336 284,0 550,285 z"
                 transform="scale(0.015625)" /><path
                 id="TimesNewRomanPSMT-53"
                 d="M 2934,4334 V 2869 h -115 q -56,422 -202,672 -145,250 -414,396 -269,147 -556,147 -325,0 -538,-198 -212,-198 -212,-452 0,-193 134,-353 194,-234 922,-625 594,-318 811,-489 217,-170 334,-402 118,-231 118,-484 0,-481 -374,-830 -373,-348 -961,-348 -184,0 -347,28 -96,16 -401,114 Q 828,144 747,144 669,144 623,97 578,50 556,-97 H 441 v 1453 h 115 q 82,-456 219,-683 138,-226 420,-376 283,-150 621,-150 390,0 616,206 227,206 227,488 0,156 -86,315 -85,160 -267,297 -122,94 -666,398 -543,305 -773,486 -229,182 -348,400 -119,219 -119,482 0,456 350,785 350,330 891,330 337,0 715,-165 175,-78 247,-78 81,0 133,48 52,49 83,195 z"
                 transform="scale(0.015625)" /><path
                 id="TimesNewRomanPSMT-76"
                 d="m 53,2863 h 1347 v -116 h -87 q -122,0 -186,-60 -64,-59 -64,-159 0,-109 65,-259 l 666,-1581 669,1640 q 71,175 71,266 0,44 -25,72 -34,47 -87,64 -53,17 -216,17 v 116 h 935 v -116 q -163,-13 -225,-66 -110,-93 -197,-312 L 1703,-88 H 1575 L 553,2328 q -69,169 -132,242 -62,74 -158,124 -54,28 -210,53 z"
                 transform="scale(0.015625)" /></defs><use
               xlink:href="#TimesNewRomanPSMT-64"
               id="use121" /><use
               xlink:href="#TimesNewRomanPSMT-61"
               x="50"
               id="use122" /><use
               xlink:href="#TimesNewRomanPSMT-20"
               x="94.384766"
               id="use123" /><use
               xlink:href="#TimesNewRomanPSMT-53"
               x="119.38477"
               id="use124" /><use
               xlink:href="#TimesNewRomanPSMT-69"
               x="175"
               id="use125" /><use
               xlink:href="#TimesNewRomanPSMT-6c"
               x="202.7832"
               id="use126" /><use
               xlink:href="#TimesNewRomanPSMT-76"
               x="230.56641"
               id="use127" /><use
               xlink:href="#TimesNewRomanPSMT-61"
               x="280.56641"
               id="use128" /><use
               xlink:href="#TimesNewRomanPSMT-20"
               x="324.95117"
               id="use129" /><use
               xlink:href="#TimesNewRomanPSMT-65"
               x="349.95117"
               id="use130" /><use
               xlink:href="#TimesNewRomanPSMT-74"
               x="394.33594"
               id="use131" /><use
               xlink:href="#TimesNewRomanPSMT-20"
               x="422.11914"
               id="use132" /><use
               xlink:href="#TimesNewRomanPSMT-61"
               x="447.11914"
               id="use133" /><use
               xlink:href="#TimesNewRomanPSMT-6c"
               x="491.50391"
               id="use134" /><use
               xlink:href="#TimesNewRomanPSMT-2e"
               x="519.28711"
               id="use135" /><use
               xlink:href="#TimesNewRomanPSMT-2c"
               x="544.28711"
               id="use136" /><use
               xlink:href="#TimesNewRomanPSMT-20"
               x="569.28711"
               id="use137" /><use
               xlink:href="#TimesNewRomanPSMT-32"
               x="594.28711"
               id="use138" /><use
               xlink:href="#TimesNewRomanPSMT-30"
               x="644.28711"
               id="use139" /><use
               xlink:href="#TimesNewRomanPSMT-32"
               x="694.28711"
               id="use140" /><use
               xlink:href="#TimesNewRomanPSMT-32"
               x="744.28711"
               id="use141" /></g></g><g
           id="line2d_19"><path
             d="m 77.4,91.649375 h 14 14"
             style="fill:none;stroke:#0000ff;stroke-width:1.5;stroke-dasharray:5.55, 2.4;stroke-dashoffset:0"
             id="path141" /></g><g
           id="text_17"><!-- Theorem 1 --><g
             transform="matrix(0.14,0,0,-0.14,116.6,96.549375)"
             id="g150"><defs
               id="defs141"><path
                 id="TimesNewRomanPSMT-68"
                 d="M 1041,4444 V 2350 q 347,381 550,489 203,108 406,108 244,0 419,-135 175,-134 259,-421 59,-200 59,-732 V 647 q 0,-272 44,-372 31,-75 106,-119 75,-43 275,-43 V 0 H 1753 v 113 h 66 q 200,0 278,60 78,61 109,180 10,50 10,294 v 1012 q 0,469 -49,616 -48,147 -155,220 -106,74 -256,74 -153,0 -319,-82 -165,-81 -396,-328 V 647 q 0,-294 32,-366 33,-72 122,-120 89,-48 308,-48 V 0 H 84 v 113 q 191,0 300,59 63,31 100,118 38,88 38,357 v 2591 q 0,490 -24,602 -23,113 -72,153 -48,41 -129,41 -66,0 -213,-50 l -43,110 856,350 z"
                 transform="scale(0.015625)" /></defs><use
               xlink:href="#TimesNewRomanPSMT-54"
               id="use142" /><use
               xlink:href="#TimesNewRomanPSMT-68"
               x="61.083984"
               id="use143" /><use
               xlink:href="#TimesNewRomanPSMT-65"
               x="111.08398"
               id="use144" /><use
               xlink:href="#TimesNewRomanPSMT-6f"
               x="155.46875"
               id="use145" /><use
               xlink:href="#TimesNewRomanPSMT-72"
               x="205.46875"
               id="use146" /><use
               xlink:href="#TimesNewRomanPSMT-65"
               x="238.76953"
               id="use147" /><use
               xlink:href="#TimesNewRomanPSMT-6d"
               x="283.1543"
               id="use148" /><use
               xlink:href="#TimesNewRomanPSMT-20"
               x="360.9375"
               id="use149" /><use
               xlink:href="#TimesNewRomanPSMT-31"
               x="385.9375"
               id="use150" /></g></g><g
           id="line2d_20"><path
             d="m 77.4,111.44406 h 14 14"
             style="fill:none;stroke:#00bfbf;stroke-width:1.5;stroke-linecap:square"
             id="path150" /></g><g
           id="text_18"><!-- Theorem 3 --><g
             transform="matrix(0.14,0,0,-0.14,116.6,116.34406)"
             id="g159"><use
               xlink:href="#TimesNewRomanPSMT-54"
               id="use151" /><use
               xlink:href="#TimesNewRomanPSMT-68"
               x="61.083984"
               id="use152" /><use
               xlink:href="#TimesNewRomanPSMT-65"
               x="111.08398"
               id="use153" /><use
               xlink:href="#TimesNewRomanPSMT-6f"
               x="155.46875"
               id="use154" /><use
               xlink:href="#TimesNewRomanPSMT-72"
               x="205.46875"
               id="use155" /><use
               xlink:href="#TimesNewRomanPSMT-65"
               x="238.76953"
               id="use156" /><use
               xlink:href="#TimesNewRomanPSMT-6d"
               x="283.1543"
               id="use157" /><use
               xlink:href="#TimesNewRomanPSMT-20"
               x="360.9375"
               id="use158" /><use
               xlink:href="#TimesNewRomanPSMT-33"
               x="385.9375"
               id="use159" /></g></g></g></g></g><defs
     id="defs159"><clipPath
       id="p7bb062365b"><rect
         x="64.800003"
         y="34.560001"
         width="401.76001"
         height="221.75999"
         id="rect159" /></clipPath></defs></svg>
